<?xml version="1.0" encoding="utf-8"?>
<!-- Generator: Avocode 2.6.0 - http://avocode.com -->
<svg height="39" width="39" xmlns:xlink="http://www.w3.org/1999/xlink" xmlns="http://www.w3.org/2000/svg" viewBox="0 0 39 39">
    <path fill="#444444" fill-rule="evenodd" d="M 8.66 25.7 C 5.34 25.7 2.37 23.85 1.11 20.98 C 0.2 18.93 0.29 16.67 1.33 14.69 C 1.12 14.35 0.94 14.01 0.79 13.66 C -0.22 11.39 -0.25 8.89 0.7 6.6 C 1.73 4.13 3.74 2.22 6.36 1.22 C 9.48 0.04 13.13 0.41 15.91 2.15 C 16.68 1.53 17.56 1.03 18.52 0.66 C 19.67 0.23 20.88 0.01 22.11 0.01 C 25.98 0.01 29.43 2.16 30.91 5.5 C 30.92 5.53 30.93 5.56 30.95 5.58 C 31.36 5.51 31.77 5.48 32.19 5.48 C 34.95 5.48 37.41 7.02 38.47 9.39 C 39.14 10.92 39.16 12.61 38.52 14.14 C 37.85 15.76 36.5 17.06 34.79 17.73 C 35.12 18.9 35.05 20.13 34.57 21.27 C 33.96 22.76 32.74 23.92 31.16 24.52 C 30.42 24.8 29.65 24.94 28.86 24.94 C 28.86 24.94 28.86 24.94 28.86 24.94 C 27.44 24.94 26.06 24.47 24.96 23.63 C 24.27 24.25 23.49 24.72 22.64 25.05 C 21.74 25.39 20.8 25.57 19.84 25.57 C 17.82 25.57 15.87 24.78 14.46 23.43 C 13.69 24.16 12.76 24.75 11.73 25.14 C 10.75 25.51 9.71 25.7 8.66 25.7 Z M 10.2 2.02 C 9.06 2.02 7.95 2.22 6.89 2.63 C 4.65 3.48 2.94 5.09 2.08 7.18 C 1.29 9.08 1.31 11.16 2.15 13.05 C 2.32 13.44 2.54 13.84 2.82 14.25 C 2.82 14.25 3.09 14.65 3.09 14.65 C 3.09 14.65 2.84 15.06 2.84 15.06 C 1.83 16.7 1.7 18.64 2.46 20.37 C 3.49 22.7 5.92 24.2 8.66 24.2 C 9.53 24.2 10.39 24.05 11.21 23.74 C 12.27 23.34 13.2 22.68 13.91 21.85 C 13.91 21.85 14.48 21.18 14.48 21.18 C 14.48 21.18 15.04 21.86 15.04 21.86 C 16.18 23.24 17.97 24.07 19.84 24.07 C 20.62 24.07 21.38 23.93 22.11 23.65 C 22.97 23.32 23.74 22.8 24.38 22.1 C 24.38 22.1 24.9 21.54 24.9 21.54 C 24.9 21.54 25.45 22.07 25.45 22.07 C 26.33 22.94 27.58 23.44 28.86 23.44 C 28.86 23.44 28.86 23.44 28.86 23.44 C 29.47 23.44 30.07 23.33 30.63 23.12 C 31.83 22.66 32.74 21.8 33.2 20.69 C 33.61 19.7 33.61 18.62 33.18 17.63 C 33.18 17.63 33.12 17.51 33.12 17.51 C 33.12 17.51 32.8 16.72 32.8 16.72 C 32.8 16.72 33.83 16.45 33.83 16.45 C 33.96 16.42 34.08 16.39 34.21 16.35 C 35.58 15.83 36.62 14.84 37.15 13.57 C 37.63 12.41 37.61 11.15 37.11 10 C 36.29 8.16 34.36 6.98 32.19 6.98 C 31.67 6.98 31.16 7.04 30.67 7.18 C 30.67 7.18 30 7.36 30 7.36 C 30 7.36 29.77 6.69 29.77 6.69 C 29.71 6.5 29.64 6.3 29.55 6.11 C 28.31 3.31 25.39 1.5 22.11 1.5 C 21.05 1.5 20.02 1.69 19.04 2.06 C 18.08 2.43 17.21 2.96 16.46 3.64 C 16.46 3.64 16.02 4.05 16.02 4.05 C 16.02 4.05 15.53 3.7 15.53 3.7 C 14.01 2.62 12.11 2.02 10.2 2.02 Z M 22.58 39 C 22.58 39 13.8 39 13.8 39 C 13.8 39 14.03 38.07 14.03 38.07 C 14.1 37.78 15.64 30.94 9.47 25.5 C 9.47 25.5 10.45 24.37 10.45 24.37 C 16.01 29.27 15.91 35.23 15.63 37.5 C 15.63 37.5 21.46 37.5 21.46 37.5 C 21.73 31.66 25 24.13 25.14 23.8 C 25.14 23.8 26.33 24.4 26.33 24.4 C 26.29 24.48 22.58 32.65 22.58 38.25 C 22.58 38.25 22.58 39 22.58 39 Z M 21.83 24.02 M 14.25 24.1 M 13.43 23.27 M 19.59 34.63 C 19.59 34.63 18.12 34.38 18.12 34.38 C 18.12 34.38 18.87 29.88 18.87 29.88 C 18.87 29.88 20.33 30.13 20.33 30.13 C 20.33 30.13 19.59 34.63 19.59 34.63 Z M 16.7 30.34 C 16.7 30.34 14.47 25.85 14.47 25.85 C 14.47 25.85 15.8 25.18 15.8 25.18 C 15.8 25.18 18.03 29.67 18.03 29.67 C 18.03 29.67 16.7 30.34 16.7 30.34 Z" />
</svg>