<?xml version="1.0" encoding="utf-8"?>
<!-- Generator: Avocode 2.6.0 - http://avocode.com -->
<svg height="33" width="37" xmlns:xlink="http://www.w3.org/1999/xlink" xmlns="http://www.w3.org/2000/svg" viewBox="0 0 37 33">
    <defs>
        <linearGradient y2="0%" y1="100%" x2="0%" x1="0%" id="gradient-1">
            <stop stop-color="#222222" offset="0%" />
            <stop stop-color="#222222" offset="100%" />
        </linearGradient>
    </defs>
    <path fill="url(#gradient-1)" fill-rule="evenodd" d="M 35.66 10.46 C 35.66 10.46 35.72 10.52 35.72 10.52 C 35.72 10.52 34.92 11.29 34.92 11.29 C 34.92 11.29 25.39 2.02 25.39 2.02 C 25.39 2.02 26.19 1.25 26.19 1.25 C 26.19 1.25 26.24 1.3 26.24 1.3 C 28.75 -0.6 32.48 -0.36 34.92 2.02 C 37.37 4.4 37.62 8.03 35.66 10.46 Z M 34.13 2.78 C 32.04 0.75 29.22 0.53 27 2.04 C 27 2.04 34.9 9.72 34.9 9.72 C 36.49 7.6 36.24 4.82 34.13 2.78 Z M 33.57 17.92 C 33.57 21.88 31.94 25.47 29.29 28.1 C 29.29 28.1 33.37 32.05 33.37 32.05 C 33.37 32.05 32.4 32.99 32.4 32.99 C 32.4 32.99 28.29 29.01 28.29 29.01 C 28.29 29.01 28.31 28.99 28.31 28.99 C 25.67 31.19 22.25 32.52 18.5 32.52 C 14.93 32.52 11.66 31.32 9.08 29.31 C 9.08 29.31 5.28 32.99 5.28 32.99 C 5.28 32.99 4.31 32.05 4.31 32.05 C 4.31 32.05 8.05 28.43 8.05 28.43 C 5.21 25.78 3.43 22.05 3.43 17.92 C 3.43 9.86 10.18 3.32 18.5 3.32 C 26.82 3.32 33.57 9.86 33.57 17.92 Z M 18.5 4.65 C 10.93 4.65 4.8 10.59 4.8 17.92 C 4.8 25.25 10.93 31.2 18.5 31.2 C 26.07 31.2 32.2 25.25 32.2 17.92 C 32.2 10.59 26.07 4.65 18.5 4.65 Z M 11.65 20.58 C 11.65 20.58 11.65 19.25 11.65 19.25 C 11.65 19.25 18.5 19.25 18.5 19.25 C 18.5 19.25 18.5 8.63 18.5 8.63 C 18.5 8.63 19.87 8.63 19.87 8.63 C 19.87 8.63 19.87 20.58 19.87 20.58 C 19.87 20.58 18.5 20.58 18.5 20.58 C 18.5 20.58 11.65 20.58 11.65 20.58 Z M 1.28 10.52 C 1.28 10.52 1.34 10.46 1.34 10.46 C -0.62 8.03 -0.37 4.4 2.08 2.02 C 4.52 -0.36 8.25 -0.6 10.76 1.3 C 10.76 1.3 10.81 1.25 10.81 1.25 C 10.81 1.25 11.61 2.02 11.61 2.02 C 11.61 2.02 2.08 11.29 2.08 11.29 C 2.08 11.29 1.28 10.52 1.28 10.52 Z M 2.87 2.78 C 0.76 4.82 0.51 7.6 2.1 9.72 C 2.1 9.72 10 2.04 10 2.04 C 7.78 0.53 4.96 0.75 2.87 2.78 Z" />
</svg>