<?xml version="1.0" encoding="utf-8"?>
<!-- Generator: Avocode 2.6.0 - http://avocode.com -->
<svg height="33" width="36" xmlns:xlink="http://www.w3.org/1999/xlink" xmlns="http://www.w3.org/2000/svg" viewBox="0 0 36 33">
    <path fill="#222222" fill-rule="evenodd" d="M 36 14.08 C 36 14.08 36 19.76 36 19.76 C 36 19.76 30.12 19.76 30.12 19.76 C 30.12 19.76 30.12 17.67 30.12 17.67 C 30.12 17.67 21.31 17.67 21.31 17.67 C 20.89 18.98 19.65 19.94 18.18 19.94 C 16.71 19.94 15.48 18.98 15.05 17.67 C 15.05 17.67 14.82 17.67 14.82 17.67 C 9.99 18.23 6.28 21.8 5.76 26.57 C 7.2 26.93 8.26 28.2 8.26 29.73 C 8.26 31.53 6.78 32.99 4.96 32.99 C 3.14 32.99 1.65 31.53 1.65 29.73 C 1.65 28.16 2.78 26.84 4.29 26.53 C 4.68 22.69 6.94 19.47 10.17 17.67 C 10.17 17.67 5.88 17.67 5.88 17.67 C 5.88 17.67 5.88 19.76 5.88 19.76 C 5.88 19.76 0 19.76 0 19.76 C 0 19.76 0 14.08 0 14.08 C 0 14.08 5.88 14.08 5.88 14.08 C 5.88 14.08 5.88 16.23 5.88 16.23 C 5.88 16.23 14.58 16.23 14.58 16.23 C 14.7 16.22 14.81 16.19 14.93 16.18 C 15.17 14.62 16.53 13.42 18.18 13.42 C 19.61 13.42 20.81 14.31 21.28 15.56 C 26.42 15.23 30.31 11.4 30.81 6.37 C 29.46 5.96 28.47 4.73 28.47 3.27 C 28.47 1.47 29.95 0.01 31.78 0.01 C 33.6 0.01 35.08 1.47 35.08 3.27 C 35.08 4.9 33.86 6.24 32.28 6.48 C 31.83 10.96 28.92 14.67 24.86 16.23 C 24.86 16.23 30.12 16.23 30.12 16.23 C 30.12 16.23 30.12 14.08 30.12 14.08 C 30.12 14.08 36 14.08 36 14.08 Z M 31.59 18.38 C 31.59 18.38 34.53 18.38 34.53 18.38 C 34.53 18.38 34.53 15.51 34.53 15.51 C 34.53 15.51 31.59 15.51 31.59 15.51 C 31.59 15.51 31.59 18.38 31.59 18.38 Z M 3.12 29.73 C 3.12 30.73 3.95 31.54 4.96 31.54 C 5.97 31.54 6.8 30.73 6.8 29.73 C 6.8 28.73 5.97 27.92 4.96 27.92 C 3.95 27.92 3.12 28.73 3.12 29.73 Z M 4.41 15.51 C 4.41 15.51 1.47 15.51 1.47 15.51 C 1.47 15.51 1.47 18.38 1.47 18.38 C 1.47 18.38 4.41 18.38 4.41 18.38 C 4.41 18.38 4.41 15.51 4.41 15.51 Z M 18.18 14.87 C 17.17 14.87 16.35 15.68 16.35 16.68 C 16.35 17.68 17.17 18.49 18.18 18.49 C 19.2 18.49 20.02 17.68 20.02 16.68 C 20.02 15.68 19.2 14.87 18.18 14.87 Z M 33.61 3.27 C 33.61 2.27 32.79 1.45 31.78 1.45 C 30.76 1.45 29.94 2.27 29.94 3.27 C 29.94 4.27 30.76 5.08 31.78 5.08 C 32.79 5.08 33.61 4.27 33.61 3.27 Z" />
</svg>