<?xml version="1.0" encoding="utf-8"?>
<!-- Generator: Avocode 2.6.0 - http://avocode.com -->
<svg height="38" width="47" xmlns:xlink="http://www.w3.org/1999/xlink" xmlns="http://www.w3.org/2000/svg" viewBox="0 0 47 38">
    <path fill="#222222" fill-rule="evenodd" d="M 35.25 37.19 C 30.97 37.19 27.23 34.92 25.18 31.53 C 25.18 31.53 12.96 31.53 12.96 31.53 C 12.96 31.55 12.97 31.57 12.97 31.59 C 12.97 35.12 10.06 37.99 6.48 37.99 C 2.91 37.99 0 35.12 0 31.59 C 0 29.98 0.63 28.53 1.62 27.4 C 1.62 27.4 1.62 27.4 1.62 27.39 C 1.62 27.39 1.62 19.39 1.62 19.39 C 1.62 17.19 3.44 15.39 5.67 15.39 C 5.67 15.39 8.1 15.39 8.1 15.39 C 8.1 15.39 8.1 9.79 8.1 9.79 C 8.1 9.79 9.72 9.79 9.72 9.79 C 9.72 9.79 9.72 15.39 9.72 15.39 C 9.72 15.39 10.54 15.39 10.54 15.39 C 10.54 15.39 10.54 9.79 10.54 9.79 C 10.54 9.79 12.15 9.79 12.15 9.79 C 12.15 9.79 12.15 15.39 12.15 15.39 C 12.15 15.39 23.5 15.39 23.5 15.39 C 23.5 15.39 23.5 12.99 23.5 12.99 C 23.5 12.93 23.52 12.88 23.53 12.83 C 23.53 12.83 21.83 12.04 21.83 12.04 C 21.43 11.86 21.25 11.38 21.44 10.98 C 21.63 10.58 22.11 10.4 22.52 10.59 C 22.52 10.59 27.19 12.75 27.19 12.75 C 27.6 12.93 27.77 13.41 27.58 13.81 C 27.45 14.1 27.15 14.27 26.85 14.27 C 26.73 14.27 26.62 14.25 26.51 14.2 C 26.51 14.2 25.12 13.56 25.12 13.56 C 25.12 13.56 25.12 15.39 25.12 15.39 C 25.12 15.39 29.66 15.39 29.66 15.39 C 30.09 15.16 30.53 14.96 30.99 14.79 C 30.94 14.64 30.91 14.48 30.95 14.32 C 30.95 14.32 32.3 8.88 32.3 8.88 C 32.41 8.45 32.85 8.19 33.28 8.3 C 33.72 8.4 33.98 8.84 33.88 9.27 C 33.88 9.27 32.62 14.3 32.62 14.3 C 33.47 14.11 34.35 13.99 35.25 13.99 C 41.73 13.99 47 19.2 47 25.59 C 47 31.99 41.73 37.19 35.25 37.19 Z M 1.62 31.59 C 1.62 34.24 3.8 36.39 6.48 36.39 C 9.16 36.39 11.35 34.24 11.35 31.59 C 11.35 31.29 11.31 30.99 11.25 30.7 C 11.23 30.56 11.18 30.42 11.13 30.27 C 11.09 30.12 11.05 29.97 10.99 29.83 C 10.95 29.71 10.88 29.6 10.83 29.48 C 10.75 29.33 10.67 29.17 10.58 29.02 C 10.51 28.93 10.44 28.84 10.38 28.75 C 10.26 28.6 10.15 28.45 10.02 28.32 C 9.94 28.24 9.87 28.17 9.79 28.1 C 9.65 27.97 9.5 27.85 9.35 27.73 C 9.26 27.67 9.17 27.61 9.08 27.55 C 8.92 27.45 8.75 27.36 8.57 27.28 C 8.48 27.23 8.38 27.18 8.28 27.14 C 8.09 27.07 7.89 27.01 7.69 26.96 C 7.6 26.94 7.51 26.9 7.41 26.89 C 7.11 26.83 6.8 26.79 6.48 26.79 C 6.15 26.79 5.82 26.83 5.51 26.89 C 5.46 26.9 5.42 26.92 5.37 26.93 C 4.62 27.11 3.95 27.46 3.38 27.93 C 3.27 28.02 3.15 28.1 3.04 28.2 C 2.16 29.07 1.62 30.27 1.62 31.59 Z M 5.67 16.99 C 4.62 16.99 3.73 17.66 3.39 18.59 C 3.39 18.59 13.78 18.59 13.78 18.59 C 14.22 18.59 14.59 18.95 14.59 19.39 C 14.59 19.84 14.22 20.19 13.78 20.19 C 13.78 20.19 3.24 20.19 3.24 20.19 C 3.24 20.19 3.24 21.82 3.24 21.82 C 3.24 21.82 13.78 21.82 13.78 21.82 C 14.22 21.82 14.59 22.18 14.59 22.63 C 14.59 23.08 14.22 23.44 13.78 23.44 C 13.78 23.44 3.24 23.44 3.24 23.44 C 3.24 23.44 3.25 26.05 3.25 26.05 C 3.81 25.72 4.43 25.5 5.07 25.36 C 5.15 25.34 5.23 25.33 5.31 25.31 C 5.69 25.24 6.08 25.19 6.48 25.19 C 6.88 25.19 7.28 25.24 7.66 25.31 C 7.83 25.34 7.98 25.39 8.14 25.43 C 8.37 25.49 8.6 25.56 8.82 25.64 C 8.95 25.69 9.08 25.75 9.21 25.81 C 10.98 26.6 12.43 28.1 12.97 29.92 C 12.97 29.92 24.31 29.92 24.31 29.92 C 24.21 29.63 24.12 29.34 24.03 29.05 C 24.03 29.04 24.03 29.04 24.03 29.03 C 23.73 28.04 23.5 26.99 23.5 25.99 C 23.5 25.93 23.51 25.87 23.51 25.8 C 23.51 25.73 23.5 25.66 23.5 25.59 C 23.5 22.18 25.01 19.12 27.39 16.99 C 27.39 16.99 5.67 16.99 5.67 16.99 Z M 35.25 15.59 C 34.06 15.59 32.92 15.81 31.86 16.18 C 31.86 16.18 30.56 16.89 30.56 16.89 C 27.26 18.7 25.19 22.11 25.13 25.82 C 25.26 31.23 29.74 35.59 35.25 35.59 C 40.84 35.59 45.38 31.11 45.38 25.59 C 45.38 20.08 40.84 15.59 35.25 15.59 Z M 35.25 32.39 C 31.45 32.39 28.36 29.34 28.36 25.59 C 28.36 21.84 31.45 18.79 35.25 18.79 C 39.05 18.79 42.14 21.84 42.14 25.59 C 42.14 29.34 39.05 32.39 35.25 32.39 Z M 35.25 20.39 C 32.35 20.39 29.98 22.73 29.98 25.59 C 29.98 28.46 32.35 30.79 35.25 30.79 C 38.15 30.79 40.52 28.46 40.52 25.59 C 40.52 22.73 38.15 20.39 35.25 20.39 Z M 35.12 27.19 C 34.22 27.19 33.49 26.48 33.49 25.59 C 33.49 24.71 34.22 23.99 35.12 23.99 C 36.01 23.99 36.73 24.71 36.73 25.59 C 36.73 26.48 36.01 27.19 35.12 27.19 Z M 6.48 29.77 C 7.38 29.77 8.1 30.49 8.1 31.37 C 8.1 32.25 7.38 32.97 6.48 32.97 C 5.59 32.97 4.86 32.25 4.86 31.37 C 4.86 30.49 5.59 29.77 6.48 29.77 Z M 33.68 4.21 C 33.68 4.21 33.03 2.74 33.03 2.74 C 34.34 2.17 35.46 1.28 36.47 0 C 36.47 0 37.75 0.99 37.75 0.99 C 36.57 2.48 35.24 3.53 33.68 4.21 Z M 23.45 4.55 C 22.16 4.35 20.83 4.15 19.57 4.07 C 19.57 4.07 19.68 2.47 19.68 2.47 C 21.01 2.56 22.37 2.77 23.69 2.97 C 24.65 3.11 25.64 3.26 26.61 3.37 C 26.61 3.37 26.43 4.96 26.43 4.96 C 25.43 4.85 24.42 4.7 23.45 4.55 Z M 10.46 8.62 C 10.46 8.62 9.05 7.83 9.05 7.83 C 10.03 6.14 11.16 4.89 12.5 4 C 12.5 4 13.4 5.33 13.4 5.33 C 12.27 6.08 11.31 7.15 10.46 8.62 Z" />
</svg>